<mxfile host="app.diagrams.net" modified="2023-07-31T04:08:21.006Z" agent="Mozilla/5.0 (Windows NT 10.0; Win64; x64) AppleWebKit/537.36 (KHTML, like Gecko) Chrome/115.0.0.0 Safari/537.36" version="21.6.5" etag="3gE0F5E438xR8BwIqS29" type="github">
  <diagram name="Page-1" id="Er7S10BGEMU4dLOhnN3i">
    <mxGraphModel>
      <root>
        <mxCell id="0" />
        <mxCell id="1" parent="0" />
      </root>
    </mxGraphModel>
  </diagram>
</mxfile>
